<svg xmlns="http://www.w3.org/2000/svg" xml:space="preserve" width="800" height="800" viewBox="0 0 504 504"><path d="M444.6 262.7c-.5 0-1.1 0-1.6.1h-80.3l-1.1 3.5c-5.2 17-20.3 28.5-37.6 28.5h-87.1l16.6 9.4c13.2 7.4 24.2 17.6 32.7 30.4l1.5 2.2h155.5c10 0 17.8-7.8 17.8-17.8v-39.2c0-9.6-7.2-17.1-16.4-17.1zm-1.6 54.5H297.7c-1.6-2.1-3.2-4.1-4.9-6H324c21.6 0 41.8-12.7 51.2-32h67.7s.1 0 .1.1v37.9z" style="fill:#835124"/><path d="M448 280.8V320c0 2.4-2.4 4.8-4.8 4.8H294.4c-4-5.6-8.8-11.2-14.4-16h43.2c20.8 0 40-12.8 48-32h71.2c4-.8 5.6 1.6 5.6 4z" style="fill:#c96"/><path d="m291.5 343 2.2 6.6c3 9.1 4.7 17.3 5.2 25.4h-6c-3.3-59.2-64.4-76.8-77-79.8l-.5-.1c-.7-.1-1.5-.6-2-1.3-.2-.3-.6-.9-.5-1.6.3-1.5 1.5-3.2 3.1-3.2h108c17.9 0 33-15.1 33-33s-15.1-33-33-33H147v85c0 38.3 15.3 74.2 43.1 101.1 25.8 25.8 60.2 40 96.8 40 2 0 4.1 0 6.2-.1 58.7-2.5 110.4-42.5 128.5-99.5l2.1-6.5H291.5zm1.2 88H288c-31.9 0-62.2-12.3-85.4-34.6-24.2-22.8-37.6-54.2-37.6-88.4v-67h159c8.4 0 15 6.6 15 15s-6.6 15-15 15H216c-10.7 0-19.9 8.3-21 18.9s6.5 20.9 16.8 23h.4c3.1.3 19 4 34 14.2 19.1 12.9 28.7 30.7 28.7 52.9v13h42v-13c0-6.3-.5-12.7-1.4-19h82.3c-19.9 41.3-60.4 68.5-105.1 70zM396 55c-17.9 0-33 15.1-33 33v16h10c0-12.7 8.5-23 19-23s19 10.3 19 23v153h18V88c0-17.9-15.1-33-33-33z" style="fill:#b37d4d"/><path d="M416 104v148h-48V104c0-15.2 10.4-28 24-28s24 12.8 24 28zM309.6 356h96c-19.2 46.4-63.2 78.4-112.8 80H288c-33.6 0-64.8-12.8-88.8-36-25.6-24-39.2-56.8-39.2-92v-72h164c11.2 0 20 8.8 20 20s-8.8 20-20 20H216c-8 0-15.2 6.4-16 14.4s4.8 16 12.8 17.6c7.2 1.6 67.2 16 67.2 72v8h32v-8c0-8-.8-16-2.4-24z" style="fill:#e4c6a1"/><path d="M324 143c-17.9 0-33 15.1-33 33v16h10c0-12.5 10.5-23 23-23s23 10.5 23 23h10v-16c0-17.9-15.1-33-33-33z" style="fill:#b37d4d"/><path d="M352 192v30.4c-8-6.4-17.6-10.4-28-10.4h-28v-20c0-15.2 12.8-28 28-28s28 12.8 28 28z" style="fill:#e4c6a1"/><path d="M252 143c-17.9 0-33 15.1-33 33v16h10c0-12.5 10.5-23 23-23s23 10.5 23 23h10v-16c0-17.9-15.1-33-33-33z" style="fill:#b37d4d"/><path d="M280 192v20h-56v-20c0-15.2 12.8-28 28-28s28 12.8 28 28z" style="fill:#e4c6a1"/><path d="M180 55c-17.9 0-33 15.1-33 33v129h18V100.8c0-10.7 8.7-19.8 19-19.8s19 9.1 19 19.8h10V88c0-17.9-15.1-33-33-33z" style="fill:#b37d4d"/><path d="M208 100.8V212h-48V100.8c0-13.6 11.2-24.8 24-24.8s24 11.2 24 24.8z" style="fill:#e4c6a1"/><path d="m121.5 331-1.2 6h24.2l-1.2-6c-1.5-7.6-2.3-15.4-2.3-23v-45h-20.5l1 5.8.3 1.8c.7 3.9 1.2 7.2 1.2 11v36.8c0 4.5-.8 9.1-1.5 12.6z" style="fill:#c96"/><path d="M141 308v-45h-20.5l1 5.8.3 1.8c.7 3.9 1.2 7.2 1.2 11v36.8c0 4.5-.8 9.1-1.5 12.6l-1.2 6h24.2l-1.2-6c-1.5-7.6-2.3-15.4-2.3-23z" style="fill:#c96"/><path d="M112 316v2.4c0 20.8-16.8 37.6-37.6 37.6H53.6C32.8 356 16 339.2 16 318.4V316c0 17.6 16.8 32 37.6 32h20.8c20.8 0 37.6-14.4 37.6-32z" style="fill:#e0cbb5"/><path d="M74.4 343H53.6c-18 0-32.6-12.1-32.6-27H11v2.4c0 23.5 19.1 42.6 42.6 42.6h20.8c23.5 0 42.6-19.1 42.6-42.6V316h-10c0 14.9-14.6 27-32.6 27zM74.4 239H53.6C30.1 239 11 258.1 11 281.6v2.4h10c0-14.9 14.6-27 32.6-27h20.8c18 0 32.6 12.1 32.6 27h10v-2.4c0-23.5-19.1-42.6-42.6-42.6z" style="fill:#e0cbb5"/><path d="M112 281.6v2.4c0-17.6-16.8-32-37.6-32H53.6C32.8 252 16 266.4 16 284v-2.4c0-20.8 16.8-37.6 37.6-37.6h20.8c20.8 0 37.6 16.8 37.6 37.6z" style="fill:#e0cbb5"/><path d="M112 284v32c0 17.6-16.8 32-37.6 32H53.6C32.8 348 16 333.6 16 316v-32c0-17.6 16.8-32 37.6-32h20.8c20.8 0 37.6 14.4 37.6 32zm-16 56v-16H80v16h16zm0-32v-16H80v16h16zm0-32v-16H80v16h16zm-24 48v-16H56v16h16zm0-32v-16H56v16h16zm-24 48v-16H32v16h16zm0-32v-16H32v16h16zm0-32v-16H32v16h16z" style="fill:#fff8ef"/><path d="M504 396v16c-13.6 0-24-10.4-24-24v-72c0-4-4-8-8-8v11.2c0 16-12.8 28.8-28.8 28.8h-9.6c-18.4 64-75.2 109.6-140 112H288c-40 0-76.8-15.2-105.6-42.4-20-19.2-33.6-43.2-40.8-69.6h-22.4c-9.6 14.4-26.4 24-44.8 24H53.6C24 372 0 348 0 318.4v-36.8C0 252 24 228 53.6 228h20.8c18.4 0 35.2 9.6 44.8 24H136V88c0-24 20-44 44-44s44 20 44 44v54.4c8-6.4 17.6-10.4 28-10.4 15.2 0 28 7.2 36 18.4 8-11.2 20.8-18.4 36-18.4 10.4 0 20 4 28 10.4V88c0-24 20-44 44-44s44 20 44 44v164h3.2c16 0 28.8 12.8 28.8 28.8V292c13.6 0 24 10.4 24 24v72c0 4 4 8 8 8zm-48-76.8V280c0-7.2-5.6-12.8-12.8-12.8h-76.8c-5.6 18.4-22.4 32-42.4 32h-68c12 7.2 24.8 17.6 34.4 32h152.8c7.2.8 12.8-4.8 12.8-12zM424 252V88c0-15.2-12.8-28-28-28s-28 12.8-28 28v164h56zm-7.2 96H298.4c3.2 9.6 5.6 20 5.6 32h-16c0-64.8-70.4-79.2-73.6-80-4-.8-6.4-4.8-6.4-8.8s4-7.2 8-7.2h108c15.2 0 28-12.8 28-28s-12.8-28-28-28H152v80c0 37.6 15.2 72 41.6 97.6s62.4 39.2 99.2 38.4c56.8-2.4 106.4-40.8 124-96zM352 222.4V176c0-15.2-12.8-28-28-28s-28 12.8-28 28v36h28c10.4 0 20 4 28 10.4zM280 212v-36c0-15.2-12.8-28-28-28s-28 12.8-28 28v36h56zm-72 0V88c0-15.2-12.8-28-28-28s-28 12.8-28 28v124h56zm-81.6 120h12c-1.6-8-2.4-16-2.4-24v-40h-9.6c.8 4 1.6 8.8 1.6 13.6v36.8c0 4.8-.8 9.6-1.6 13.6zM112 318.4v-36.8c0-20.8-16.8-37.6-37.6-37.6H53.6C32.8 244 16 260.8 16 281.6v36.8c0 20.8 16.8 37.6 37.6 37.6h20.8c20.8 0 37.6-16.8 37.6-37.6zM80 324h16v16H80v-16zm0-32h16v16H80v-16zm0-32h16v16H80v-16zm-24 48h16v16H56v-16zm0-32h16v16H56v-16zm-24 48h16v16H32v-16zm0-32h16v16H32v-16zm0-32h16v16H32v-16z" style="fill:#42210b"/></svg>